<svg width="2173" height="520" viewBox="0 0 2173 520" fill="none" xmlns="http://www.w3.org/2000/svg">
<path fill-rule="evenodd" clip-rule="evenodd" d="M517.89 30.5045L169.222 0L161.834 84.4437H359.999V443.314L480.849 453.887L517.89 30.5045Z" fill="#FFADE7"/>
<path fill-rule="evenodd" clip-rule="evenodd" d="M487.503 58.0876L188.644 31.9409L184.051 84.4435H360V348.079L461.356 356.946L487.503 58.0876Z" fill="black"/>
<rect y="94.4436" width="350" height="425" fill="#FFADE7"/>
<rect x="25" y="124.444" width="300" height="300" fill="black"/>
<path d="M667.88 243.59H703.16V194.66C703.16 177.16 706.17 163.09 712.19 152.45C718.35 141.81 726.12 134.11 735.5 129.35C745.02 124.45 754.75 122 764.69 122C776.73 122 785.97 123.68 792.41 127.04C798.99 130.4 802.91 132.64 804.17 133.76L789.47 161.69C788.77 160.85 786.6 159.31 782.96 157.07C779.32 154.83 774.35 153.71 768.05 153.71C763.43 153.71 758.95 154.83 754.61 157.07C750.27 159.31 746.63 163.65 743.69 170.09C740.75 176.53 739.28 186.12 739.28 198.86V243.59H788.42V274.88H739.28V416H703.16V274.88H667.88V243.59ZM857.362 416H821.032V243.59H857.362V273.41H856.312C857.012 269.77 859.602 265.22 864.082 259.76C868.562 254.3 874.722 249.4 882.562 245.06C890.402 240.72 899.782 238.55 910.702 238.55C918.682 238.55 925.682 239.67 931.702 241.91C937.862 244.01 942.202 246.11 944.722 248.21L929.812 278.45C927.852 276.49 924.422 274.53 919.522 272.57C914.622 270.47 908.532 269.42 901.252 269.42C892.012 269.42 884.102 272.29 877.522 278.03C870.942 283.77 865.902 290.7 862.402 298.82C859.042 306.8 857.362 314.22 857.362 321.08V416ZM1103.2 416V382.4C1102.08 385.9 1098.79 390.73 1093.33 396.89C1088.01 403.05 1080.66 408.65 1071.28 413.69C1062.04 418.59 1051.12 421.04 1038.52 421.04C1022.56 421.04 1008.07 417.26 995.047 409.7C982.167 402.14 971.877 391.57 964.177 377.99C956.617 364.27 952.837 348.24 952.837 329.9C952.837 311.56 956.617 295.6 964.177 282.02C971.877 268.3 982.167 257.66 995.047 250.1C1008.07 242.4 1022.56 238.55 1038.52 238.55C1050.98 238.55 1061.76 240.79 1070.86 245.27C1080.1 249.75 1087.45 254.93 1092.91 260.81C1098.51 266.69 1101.8 271.73 1102.78 275.93V243.59H1138.9V416H1103.2ZM988.957 329.9C988.957 342.36 991.687 353.14 997.147 362.24C1002.61 371.34 1009.68 378.41 1018.36 383.45C1027.18 388.35 1036.56 390.8 1046.5 390.8C1057.14 390.8 1066.66 388.28 1075.06 383.24C1083.46 378.2 1090.11 371.13 1095.01 362.03C1099.91 352.79 1102.36 342.08 1102.36 329.9C1102.36 317.72 1099.91 307.08 1095.01 297.98C1090.11 288.74 1083.46 281.6 1075.06 276.56C1066.66 271.38 1057.14 268.79 1046.5 268.79C1036.56 268.79 1027.18 271.31 1018.36 276.35C1009.68 281.39 1002.61 288.46 997.147 297.56C991.687 306.66 988.957 317.44 988.957 329.9ZM1394.57 238.55C1407.31 238.55 1418.23 241.35 1427.33 246.95C1436.43 252.41 1443.36 260.81 1448.12 272.15C1453.02 283.49 1455.47 297.98 1455.47 315.62V416H1419.35V322.97C1419.35 304.35 1416.76 290.35 1411.58 280.97C1406.4 271.59 1396.95 266.9 1383.23 266.9C1375.95 266.9 1368.95 268.93 1362.23 272.99C1355.65 276.91 1350.19 283 1345.85 291.26C1341.65 299.52 1339.55 310.09 1339.55 322.97V416H1305.53V322.97C1305.53 304.35 1302.31 290.35 1295.87 280.97C1289.43 271.59 1280.4 266.9 1268.78 266.9C1261.36 266.9 1254.36 268.86 1247.78 272.78C1241.34 276.56 1236.09 282.58 1232.03 290.84C1227.97 299.1 1225.94 309.81 1225.94 322.97V416H1189.61V243.59H1225.94V270.05C1227.48 265.71 1230.77 261.09 1235.81 256.19C1240.99 251.29 1247.57 247.16 1255.55 243.8C1263.67 240.3 1272.7 238.55 1282.64 238.55C1293 238.55 1301.68 240.65 1308.68 244.85C1315.68 249.05 1321.21 254.23 1325.27 260.39C1329.33 266.41 1332.13 272.22 1333.67 277.82C1335.63 271.8 1339.41 265.78 1345.01 259.76C1350.61 253.6 1357.68 248.56 1366.22 244.64C1374.76 240.58 1384.21 238.55 1394.57 238.55ZM1528.89 337.25C1529.03 347.61 1531.27 357.06 1535.61 365.6C1539.95 374.14 1546.39 380.93 1554.93 385.97C1563.61 391.01 1574.25 393.53 1586.85 393.53C1597.49 393.53 1606.52 391.99 1613.94 388.91C1621.5 385.69 1627.66 381.91 1632.42 377.57C1637.18 373.09 1640.61 369.1 1642.71 365.6L1660.56 387.65C1655.94 394.37 1650.27 400.25 1643.55 405.29C1636.97 410.33 1628.92 414.18 1619.4 416.84C1609.88 419.64 1598.26 421.04 1584.54 421.04C1566.06 421.04 1550.03 417.12 1536.45 409.28C1523.01 401.3 1512.65 390.31 1505.37 376.31C1498.09 362.17 1494.45 346 1494.45 327.8C1494.45 311 1497.88 295.88 1504.74 282.44C1511.6 268.86 1521.54 258.15 1534.56 250.31C1547.72 242.47 1563.54 238.55 1582.02 238.55C1598.96 238.55 1613.66 242.12 1626.12 249.26C1638.72 256.26 1648.45 266.2 1655.31 279.08C1662.31 291.96 1665.81 307.36 1665.81 325.28C1665.81 326.4 1665.74 328.43 1665.6 331.37C1665.46 334.17 1665.32 336.13 1665.18 337.25H1528.89ZM1630.95 309.74C1630.81 304 1629.13 297.7 1625.91 290.84C1622.83 283.98 1617.79 278.1 1610.79 273.2C1603.79 268.3 1594.34 265.85 1582.44 265.85C1570.12 265.85 1560.18 268.23 1552.62 272.99C1545.2 277.75 1539.74 283.56 1536.24 290.42C1532.74 297.14 1530.71 303.58 1530.15 309.74H1630.95ZM1785.96 421.04C1768.18 421.04 1752.36 417.05 1738.5 409.07C1724.78 401.09 1714 390.31 1706.16 376.73C1698.32 363.01 1694.4 347.54 1694.4 330.32C1694.4 313.1 1698.32 297.56 1706.16 283.7C1714 269.84 1724.78 258.85 1738.5 250.73C1752.36 242.61 1768.18 238.55 1785.96 238.55C1803.6 238.55 1819.21 242.61 1832.79 250.73C1846.51 258.85 1857.22 269.84 1864.92 283.7C1872.62 297.56 1876.47 313.1 1876.47 330.32C1876.47 347.54 1872.62 363.01 1864.92 376.73C1857.22 390.31 1846.51 401.09 1832.79 409.07C1819.21 417.05 1803.6 421.04 1785.96 421.04ZM1785.96 389.75C1797.16 389.75 1806.89 387.16 1815.15 381.98C1823.55 376.8 1830.06 369.73 1834.68 360.77C1839.3 351.67 1841.61 341.45 1841.61 330.11C1841.61 318.77 1839.3 308.55 1834.68 299.45C1830.06 290.35 1823.55 283.14 1815.15 277.82C1806.89 272.5 1797.16 269.84 1785.96 269.84C1774.62 269.84 1764.75 272.5 1756.35 277.82C1747.95 283.14 1741.37 290.35 1736.61 299.45C1731.99 308.55 1729.68 318.77 1729.68 330.11C1729.68 341.45 1731.99 351.67 1736.61 360.77C1741.37 369.73 1747.95 376.8 1756.35 381.98C1764.75 387.16 1774.62 389.75 1785.96 389.75ZM1900.81 243.59H1936.09V194.66C1936.09 177.16 1939.1 163.09 1945.12 152.45C1951.28 141.81 1959.05 134.11 1968.43 129.35C1977.95 124.45 1987.68 122 1997.62 122C2009.66 122 2018.9 123.68 2025.34 127.04C2031.92 130.4 2035.84 132.64 2037.1 133.76L2022.4 161.69C2021.7 160.85 2019.53 159.31 2015.89 157.07C2012.25 154.83 2007.28 153.71 2000.98 153.71C1996.36 153.71 1991.88 154.83 1987.54 157.07C1983.2 159.31 1979.56 163.65 1976.62 170.09C1973.68 176.53 1972.21 186.12 1972.21 198.86V243.59H2021.35V274.88H1972.21V416H1936.09V274.88H1900.81V243.59ZM2036.05 243.59H2071.33V194.66C2071.33 177.16 2074.34 163.09 2080.36 152.45C2086.52 141.81 2094.29 134.11 2103.67 129.35C2113.19 124.45 2122.92 122 2132.86 122C2144.9 122 2154.14 123.68 2160.58 127.04C2167.16 130.4 2171.08 132.64 2172.34 133.76L2157.64 161.69C2156.94 160.85 2154.77 159.31 2151.13 157.07C2147.49 154.83 2142.52 153.71 2136.22 153.71C2131.6 153.71 2127.12 154.83 2122.78 157.07C2118.44 159.31 2114.8 163.65 2111.86 170.09C2108.92 176.53 2107.45 186.12 2107.45 198.86V243.59H2156.59V274.88H2107.45V416H2071.33V274.88H2036.05V243.59Z" fill="#FFADE7"/>
</svg>
